<svg width="120" height="120" viewBox="0 0 120 120" fill="none" xmlns="http://www.w3.org/2000/svg">
  <!-- Circle background -->
  <circle cx="60" cy="60" r="60" fill="#0A84FF" />
  
  <!-- Inner light circle -->
  <circle cx="60" cy="60" r="52" fill="#0A84FF" stroke="white" stroke-width="2" stroke-opacity="0.3" />
  
  <!-- World grid lines -->
  <circle cx="60" cy="60" r="36" fill="none" stroke="white" stroke-width="1.5" stroke-opacity="0.4" />
  <path d="M24 60H96" stroke="white" stroke-width="1.5" stroke-opacity="0.4" />
  <path d="M60 24V96" stroke="white" stroke-width="1.5" stroke-opacity="0.4" />
  <path d="M32 35.4315C44.6667 48.0981 75.3333 48.0981 88 35.4315" stroke="white" stroke-width="1.5" stroke-opacity="0.4" />
  <path d="M32 84.5685C44.6667 71.9018 75.3333 71.9018 88 84.5685" stroke="white" stroke-width="1.5" stroke-opacity="0.4" />
  
  <!-- Money/Arrow Symbol -->
  <path d="M48 45H72C76.4183 45 80 48.5817 80 53V67C80 71.4183 76.4183 75 72 75H48C43.5817 75 40 71.4183 40 67V53C40 48.5817 43.5817 45 48 45Z" fill="white" />
  
  <!-- Currency Symbol -->
  <path d="M60 53V67M55 58H65" stroke="#0A84FF" stroke-width="3" stroke-linecap="round" />
  
  <!-- Arrow paths -->
  <path d="M32 50C28 60 28 60 32 70" stroke="white" stroke-width="3" stroke-linecap="round" />
  <path d="M88 50C92 60 92 60 88 70" stroke="white" stroke-width="3" stroke-linecap="round" />
</svg> 