<svg width="400" height="400" viewBox="0 0 400 400" fill="none" xmlns="http://www.w3.org/2000/svg">
  <!-- Background Circle -->
  <circle cx="200" cy="200" r="180" fill="white" fill-opacity="0.1"/>
  
  <!-- Banknote 1 -->
  <rect x="100" y="130" width="200" height="100" rx="12" fill="white" fill-opacity="0.9"/>
  <rect x="120" y="150" width="160" height="60" rx="8" fill="#0A84FF" fill-opacity="0.2"/>
  <circle cx="160" cy="180" r="25" fill="white" fill-opacity="0.9"/>
  <path d="M160 165V195M150 180H170" stroke="#0A84FF" stroke-width="2" stroke-linecap="round"/>
  
  <!-- Banknote 2 (shifted down) -->
  <rect x="120" y="180" width="200" height="100" rx="12" fill="white" fill-opacity="0.9"/>
  <rect x="140" y="200" width="160" height="60" rx="8" fill="#0A84FF" fill-opacity="0.2"/>
  <circle cx="180" cy="230" r="25" fill="white" fill-opacity="0.9"/>
  <path d="M180 215V245M170 230H190" stroke="#0A84FF" stroke-width="2" stroke-linecap="round"/>
  
  <!-- Arrow -->
  <path d="M200 90C240 90 280 110 280 150" stroke="white" stroke-width="4" stroke-linecap="round"/>
  <path d="M290 140L280 150L270 140" stroke="white" stroke-width="4" stroke-linecap="round" stroke-linejoin="round"/>
  
  <path d="M200 310C160 310 120 290 120 250" stroke="white" stroke-width="4" stroke-linecap="round"/>
  <path d="M110 260L120 250L130 260" stroke="white" stroke-width="4" stroke-linecap="round" stroke-linejoin="round"/>
</svg> 